Coordinates
version=1
nRows=16
nColumns=36
inDegrees=yes

Units are S.I. units (second, meters, Newtons, ...)
If the header above contains a line with 'inDegrees', this indicates whether rotational values are in degrees (yes) or radians (no).

endheader
time	pelvis_tilt	pelvis_list	pelvis_rotation	pelvis_tx	pelvis_ty	pelvis_tz	hip_flexion_r	hip_adduction_r	hip_rotation_r	knee_angle_r	knee_angle_r_beta	ankle_angle_r	subtalar_angle_r	mtp_angle_r	hip_flexion_l	hip_adduction_l	hip_rotation_l	knee_angle_l	knee_angle_l_beta	ankle_angle_l	subtalar_angle_l	mtp_angle_l	lumbar_extension	lumbar_bending	lumbar_rotation	arm_flex_r	arm_add_r	arm_rot_r	elbow_flex_r	pro_sup_r	arm_flex_l	arm_add_l	arm_rot_l	elbow_flex_l	pro_sup_l
      9.15000000	     -1.22610482	     -0.98149793	      4.72030792	     -0.64150381	      0.58424125	     -0.62875955	     94.60080600	    -12.62446435	      0.97061009	     94.46547624	      1.64873359	      3.35584269	    -11.66901790	     -7.49999987	     94.82452468	     -2.81899087	      2.80131978	     94.91757175	      1.65662415	      2.85779113	    -10.95852410	     -7.49999987	    -39.54616283	      1.53849506	     -2.27403858	     52.30629050	    -27.21630837	     -2.42846099	    114.76815046	    100.55654982	     49.35401615	    -25.89432525	     -2.82894592	    118.53872067	     93.56778175
      9.16000000	     -0.30903435	     -1.01705463	      4.71123237	     -0.64441604	      0.58449393	     -0.62868680	     93.73727638	    -12.54869830	      0.86371535	     94.28506919	      1.64558489	      2.98219999	    -11.85422398	     -7.49999987	     94.02913002	     -2.84008282	      2.90868093	     94.79822351	      1.65454113	      2.62645699	    -10.95848445	     -7.49999987	    -39.21500100	      1.62503936	     -2.19671294	     50.46654614	    -26.76803506	     -2.77872208	    115.45841917	    100.56547874	     47.24139973	    -25.28241983	     -3.59676244	    119.21687511	     93.64884597
      9.17000000	      0.64236635	     -1.02911195	      4.71971807	     -0.64718631	      0.58464273	     -0.62866088	     92.86451506	    -12.49698218	      0.79745292	     94.15969402	      1.64339668	      2.59949965	    -11.96389253	     -7.49999987	     93.20999259	     -2.84738140	      2.99484210	     94.71611149	      1.65310800	      2.37114522	    -10.96081783	     -7.49999987	    -38.90485939	      1.69037237	     -2.19886309	     48.64690686	    -26.35661736	     -3.04087091	    116.01839889	    100.58641550	     45.08228294	    -24.79371667	     -4.21633659	    119.81738310	     93.73301184
      9.18000000	      1.61111051	     -1.05170145	      4.67865881	     -0.64988129	      0.58478442	     -0.62851735	     91.96343042	    -12.40935195	      0.68238428	     94.01693989	      1.64090515	      2.25093847	    -12.04177987	     -7.49999987	     92.37649876	     -2.93536757	      3.06299044	     94.65641250	      1.65206606	      2.10731944	    -10.95072083	     -7.49999987	    -38.63154809	      1.75008241	     -2.10533216	     46.83437957	    -25.94140423	     -3.22998142	    116.53297853	    100.62886528	     42.93722060	    -24.37578032	     -4.72150591	    120.36959654	     93.83327328
      9.19000000	      2.57662891	     -1.14367784	      4.64192013	     -0.65255726	      0.58488014	     -0.62826406	     91.03910384	    -12.25157017	      0.56189695	     93.87647590	      1.63845359	      1.90167187	    -12.15746204	     -7.49999987	     91.59716491	     -3.09272171	      3.16026401	     94.60374128	      1.65114677	      1.82553156	    -10.94472649	     -7.49999987	    -38.41927341	      1.87001952	     -2.01713838	     44.99558985	    -25.51027278	     -3.49118121	    117.12595287	    100.69453196	     40.77289653	    -23.85800042	     -5.34210042	    120.96056943	     93.96211839
      9.20000000	      3.52029273	     -1.16656564	      4.61627632	     -0.65494040	      0.58488099	     -0.62824581	     90.16553388	    -12.17370989	      0.48197802	     93.80292538	      1.63716990	      1.62628681	    -12.25739189	     -7.49999987	     90.80674058	     -3.17592099	      3.21915080	     94.60132866	      1.65110466	      1.55757819	    -10.94113377	     -7.49999987	    -38.14125020	      1.92507707	     -1.98621407	     43.09361353	    -25.16633786	     -3.75855634	    117.58576293	    100.75769821	     38.55356445	    -23.37259928	     -5.87556882	    121.40117717	     94.07520118
      9.21000000	      4.42913663	     -1.18177158	      4.62365657	     -0.65728848	      0.58501373	     -0.62822927	     89.29470907	    -12.13533434	      0.38881600	     93.67868062	      1.63500142	      1.33222496	    -12.40944579	     -7.49999987	     90.00324555	     -3.23932365	      3.23853279	     94.51461262	      1.64959118	      1.24492340	    -10.97677286	     -7.49999987	    -37.91442611	      1.99423188	     -2.01630434	     41.17567034	    -24.61414141	     -4.14139388	    118.13088380	    100.85101846	     36.27639973	    -22.77214676	     -6.52649415	    122.00579369	     94.23230207
      9.22000000	      5.32729420	     -1.17491626	      4.63823287	     -0.65961912	      0.58523612	     -0.62819233	     88.44576109	    -12.12575287	      0.31296346	     93.57431342	      1.63317986	      1.03192829	    -12.51611725	     -7.49999987	     89.19017887	     -3.26998818	      3.27353153	     94.42011751	      1.64794193	      0.91800349	    -10.99833794	     -7.49999987	    -37.72098323	      2.03978044	     -2.08274528	     39.23829803	    -24.12789433	     -4.48111019	    118.58793049	    100.95282465	     33.97280811	    -22.29315026	     -7.07396829	    122.52142029	     94.37907187
      9.23000000	      6.20226643	     -1.16225321	      4.65515921	     -0.66194090	      0.58555010	     -0.62810111	     87.61279473	    -12.09187766	      0.26653389	     93.47217317	      1.63139718	      0.78241209	    -12.54670166	     -7.49999987	     88.40296352	     -3.32984651	      3.26210513	     94.32796457	      1.64633356	      0.65347751	    -10.99039951	     -7.49999987	    -37.51425506	      2.08789365	     -2.13249814	     37.27877658	    -23.71341930	     -4.74840708	    118.90915992	    101.02798204	     31.66221524	    -21.86131475	     -7.50226045	    122.83294699	     94.48858337
      9.24000000	      7.10752058	     -1.14972490	      4.63022206	     -0.66430627	      0.58601804	     -0.62804168	     86.73604805	    -12.02075672	      0.21958688	     93.33598111	      1.62902018	      0.51973311	    -12.60245058	     -7.49999987	     87.55257942	     -3.40635304	      3.26625153	     94.22182642	      1.64448110	      0.38987956	    -11.02669666	     -7.49999987	    -37.41789781	      2.12398360	     -2.21862082	     35.34117250	    -23.05801396	     -5.17371806	    119.31443845	    101.11888226	     29.28253029	    -21.25325899	     -8.21216614	    123.27654903	     94.65122423
      9.25000000	      8.03616122	     -1.12764966	      4.62954133	     -0.66663241	      0.58654440	     -0.62798698	     85.81729816	    -11.98505351	      0.16722239	     93.21196325	      1.62685566	      0.27717383	    -12.67799446	     -7.49999987	     86.67348848	     -3.45276870	      3.27557927	     94.11934940	      1.64269254	      0.17107241	    -11.09634941	     -7.49999987	    -37.37240159	      2.13298676	     -2.34024765	     33.42264566	    -22.39782982	     -5.52241546	    119.59228034	    101.21053320	     26.90817887	    -20.58369646	     -8.95221362	    123.67532546	     94.83902970
      9.26000000	      8.93981155	     -1.08988859	      4.64651754	     -0.66885864	      0.58704273	     -0.62796392	     84.93073397	    -11.98794703	      0.11486064	     93.09913072	      1.62488636	      0.04655663	    -12.75770065	     -7.49999987	     85.80662281	     -3.47024007	      3.27568074	     94.02012102	      1.64096067	     -0.02609152	    -11.16600960	     -7.49999987	    -37.32600048	      2.13890625	     -2.50352122	     31.46409768	    -21.79467982	     -5.81913272	    119.81566867	    101.31299617	     24.51126975	    -19.88290253	     -9.72920648	    124.01529796	     95.05156993
      9.27000000	      9.74154483	     -1.02301838	      4.65496255	     -0.67095557	      0.58739510	     -0.62785685	     84.16972368	    -11.97401778	      0.10341050	     93.01470843	      1.62341291	     -0.12258543	    -12.78460238	     -7.49999987	     85.05543100	     -3.50679112	      3.21944200	     93.95358989	      1.63979949	     -0.18257654	    -11.18058450	     -7.49999987	    -37.18037685	      2.11045352	     -2.59870152	     29.44252106	    -21.36988538	     -6.01042028	    119.91278136	    101.37965078	     22.13987743	    -19.26970925	    -10.24858394	    124.06539167	     95.17506600
      9.28000000	     10.52019206	     -0.92541301	      4.64780593	     -0.67307179	      0.58778790	     -0.62777725	     83.41686809	    -11.92181538	      0.16862331	     92.89847760	      1.62138430	     -0.32810330	    -12.86217851	     -7.49999987	     84.29113472	     -3.50712477	      3.18576189	     93.84072103	      1.63782955	     -0.36215864	    -11.23828154	     -7.49999987	    -37.10278694	      2.06122391	     -2.79545918	     27.45945092	    -20.61389478	     -6.42505348	    120.17447489	    101.50416026	     19.67618263	    -18.40479773	    -11.23306238	    124.27681054	     95.39435282
      9.29000000	     11.24125170	     -0.82541938	      4.67915309	     -0.67510006	      0.58810511	     -0.62786502	     82.73644438	    -11.95145430	      0.20684241	     92.80573739	      1.61976568	     -0.52343530	    -12.89574774	     -7.49999987	     83.59561968	     -3.45870419	      3.11770570	     93.74716900	      1.63619676	     -0.53045207	    -11.26470666	     -7.49999987	    -36.94481577	      2.02007176	     -2.99250371	     25.45120813	    -20.07462214	     -6.68246589	    120.17666525	    101.60005555	     17.21953718	    -17.67684983	    -11.85960778	    124.19468509	     95.54501913
      9.30000000	     11.94666993	     -0.67940101	      4.75521400	     -0.67720955	      0.58838964	     -0.62802517	     82.09177264	    -12.04368191	      0.28519039	     92.69379474	      1.61781191	     -0.98892121	    -13.19697069	     -7.49999987	     82.87858288	     -3.30417835	      3.03509057	     93.57566127	      1.63320339	     -0.99699898	    -11.70696502	     -7.49999987	    -36.82432567	      2.01860225	     -3.99238402	     24.19128238	    -18.95788773	     -6.16484883	    119.48264533	    103.00592552	     14.06051905	    -16.92747459	    -13.83867255	    124.45327299	     97.87313667
